<?xml version="1.0" encoding="utf-8"?>
<!-- Generator: Adobe Illustrator 27.8.1, SVG Export Plug-In . SVG Version: 6.00 Build 0)  -->
<svg version="1.1" id="Layer_1" xmlns="http://www.w3.org/2000/svg" xmlns:xlink="http://www.w3.org/1999/xlink" x="0px" y="0px"
	 viewBox="0 0 1392.1 1325.7" style="enable-background:new 0 0 1392.1 1325.7;" xml:space="preserve">
<style type="text/css">
	.st0{fill:#0C0C0C;}
</style>
<g>
	<g>
		<g>
			<polygon class="st0" points="407.6,129 407.6,244.1 387.6,244.1 387.6,178.1 374.3,178.1 374.3,129 			"/>
			<polygon class="st0" points="372.6,129 372.6,178.1 366.7,178.1 366.7,244.1 347.5,244.1 347.5,178.1 338.9,178.1 338.9,129 			
				"/>
			<polygon class="st0" points="337.3,129 337.3,178.1 325.6,178.1 325.6,244.1 304,244.1 304,129 			"/>
		</g>
		<path class="st0" d="M422.2,262.2H289.3V110.9h132.9V262.2L422.2,262.2z M291.3,259.9h128.9V113.2H291.3V259.9z"/>
		<path class="st0" d="M416.9,256.1H294.6V117h122.3V256.1L416.9,256.1z M295.1,255.6h121.3v-138H295.1V255.6z"/>
	</g>
	<g>
		<g>
			<path class="st0" d="M238.3,335.8v-32.5h8l7.8,22.8c0.4,1.3,0.7,2.2,0.8,3.2h0.1c0.1-1,0.4-1.9,0.8-3.3l7.8-22.7h8.1v32.5h-5
				v-23.7c0-1.3,0-2.7,0.2-3.8h-0.1c-0.1,0.7-0.6,2.4-1,3.6l-8.3,23.9h-5l-8.3-24c-0.4-1.1-0.8-2.7-0.9-3.6H243
				c0.1,1,0.1,2.3,0.1,3.8v23.7L238.3,335.8L238.3,335.8z"/>
			<path class="st0" d="M278.2,303.2h5.5v19.3c0,5.2,2.9,9,8.1,9c5.1,0,8.1-3.7,8.1-9v-19.3h5.5V323c0,8.1-4.9,13.7-13.6,13.7
				c-8.6,0-13.6-5.6-13.6-13.7V303.2L278.2,303.2z"/>
			<path class="st0" d="M309.1,327.3l4.6-2.4c1.4,4.1,4.6,7,10,7c5.4,0,7.1-1.4,7.1-4.8c0-3.4-1.7-4.2-5.4-4.8l-6.1-1
				c-5.4-1-8.5-3.8-8.5-9.3c0-5.5,4.6-9.6,12.3-9.6s11.3,2.7,13.2,8.2l-4.3,2.6c-1.3-3.9-4.3-6.1-9.1-6.1s-6.6,1.6-6.6,4.4
				s1.4,3.9,5.1,4.6l6,1c5.9,1,9.1,3.6,9.1,9.3c0,5.7-4.4,10.3-12.8,10.3C315.1,336.7,310.8,333.1,309.1,327.3L309.1,327.3z"/>
			<path class="st0" d="M346.9,331h17.3v4.8h-22.8v-32.5h22.5v4.8h-17v8.8h16.3v4.7h-16.3L346.9,331L346.9,331z"/>
			<path class="st0" d="M367.5,319.5c0-10.5,6.3-17.2,15.8-17.2c9.6,0,15.8,6.7,15.8,17.2s-6.2,17.2-15.8,17.2
				C373.7,336.7,367.5,329.9,367.5,319.5L367.5,319.5z M393.4,319.5c0-7.5-3.9-12.2-10.1-12.2s-10.1,4.8-10.1,12.2
				c0,7.5,3.9,12.2,10.1,12.2S393.4,327,393.4,319.5z"/>
			<path class="st0" d="M417,335.8v-32.5h13.2c9.2,0,15.3,6.1,15.3,16s-6.2,16.6-15.4,16.6L417,335.8L417,335.8z M422.5,331h7.4
				c6.2,0,9.9-4.9,9.9-11.8s-3.8-11.3-10-11.3h-7.3L422.5,331L422.5,331z"/>
			<path class="st0" d="M456,331h17.3v4.8h-22.8v-32.5H473v4.8h-17v8.8h16.3v4.7H456L456,331L456,331z"/>
			<path class="st0" d="M238.3,379.9v-30.8h5.2v25.9h15.1v4.9L238.3,379.9L238.3,379.9z"/>
			<path class="st0" d="M285.2,379.9l-2.7-7.5h-13.4l-2.7,7.5H261l11.9-30.8h5.8l11.9,30.8H285.2L285.2,379.9z M270.7,368.1h10.2
				l-4-10.9c-0.3-1-0.8-2.3-1.1-3.6h-0.1c-0.3,1.2-0.8,2.6-1.1,3.6L270.7,368.1z"/>
			<path class="st0" d="M306.8,379.9v-30.8h7.5l7.4,21.5c0.4,1.2,0.6,2.1,0.8,3.1h0.1c0.1-1,0.4-1.8,0.8-3.1l7.4-21.5h7.6v30.8h-4.8
				v-22.4c0-1.2,0-2.6,0.2-3.6h-0.1c-0.1,0.7-0.6,2.3-0.9,3.4l-7.8,22.6h-4.8l-7.8-22.6c-0.4-1-0.7-2.6-0.9-3.4h-0.1
				c0.1,1,0.1,2.2,0.1,3.6V380L306.8,379.9L306.8,379.9z"/>
			<path class="st0" d="M344.6,349.1h5.2v18.3c0,4.9,2.7,8.5,7.6,8.5c4.9,0,7.6-3.5,7.6-8.5v-18.3h5.2v18.7c0,7.7-4.6,13-12.8,13
				c-8.2,0-12.8-5.3-12.8-13L344.6,349.1L344.6,349.1z"/>
			<path class="st0" d="M373.7,371.8l4.4-2.2c1.3,3.9,4.3,6.6,9.4,6.6s6.7-1.3,6.7-4.6s-1.6-3.9-5.1-4.6l-5.8-0.9
				c-5.1-0.9-8.1-3.6-8.1-8.8s4.3-9.1,11.6-9.1s10.7,2.5,12.4,7.8l-4.1,2.5c-1.2-3.7-4.1-5.8-8.6-5.8c-4.5,0-6.2,1.5-6.2,4.2
				s1.3,3.7,4.9,4.3l5.7,1c5.6,1,8.6,3.4,8.6,8.8s-4.2,9.7-12.1,9.7C379.4,380.8,375.3,377.4,373.7,371.8L373.7,371.8z"/>
			<path class="st0" d="M409.4,379.9h-5.2v-30.8h5.2V379.9z"/>
			<path class="st0" d="M414.1,364.5c0-9.7,5.7-16.3,14.9-16.3c9.2,0,12.3,4.3,13.5,11.2l-5.4,0.9c-0.8-4.6-3.6-7.3-8.3-7.3
				c-4.6,0-9.3,4.5-9.3,11.5c0,6.9,3.5,11.5,9.4,11.5s7.3-2.6,8.3-7l5.2,1.2c-1.6,6.5-6.2,10.6-13.6,10.6
				C421.3,380.8,414.1,374.1,414.1,364.5L414.1,364.5z"/>
			<path class="st0" d="M467.5,379.9l-2.7-7.5h-13.4l-2.7,7.5h-5.4l11.9-30.8h5.8l11.9,30.8H467.5L467.5,379.9z M453,368.1h10.2
				l-4-10.9c-0.3-1-0.8-2.3-1.1-3.6H458c-0.3,1.2-0.8,2.6-1.1,3.6L453,368.1L453,368.1z"/>
		</g>
		<g>
			<path class="st0" d="M238.3,411.3v-18.4h6.6c5,0,8.3,3.2,8.3,9.1s-3.4,9.4-8.3,9.4L238.3,411.3L238.3,411.3z M239.6,410.1h5.4
				c4.2,0,6.9-3.1,6.9-8.1s-2.8-7.8-7-7.8h-5.3V410.1z"/>
			<path class="st0" d="M260.3,410.1h10.8v1.2H259v-18.4h12v1.2h-10.7v7.1h10.3v1.2h-10.3V410.1L260.3,410.1z"/>
			<path class="st0" d="M295.2,392.9c3.2,0,5.2,2,5.2,5.2s-2,5.4-5.3,5.4h-6.2v7.8h-1.3v-18.4L295.2,392.9L295.2,392.9z
				 M295.2,402.3c2.4,0,3.9-1.6,3.9-4.2s-1.5-3.9-4-3.9h-6.2v8.1H295.2z"/>
			<path class="st0" d="M305.4,392.9h1.3v11.4c0,3.7,2,6.3,5.7,6.3c3.6,0,5.7-2.5,5.7-6.3v-11.4h1.3v11.5c0,4.5-2.5,7.5-7,7.5
				s-7-3-7-7.5L305.4,392.9L305.4,392.9z"/>
			<path class="st0" d="M327.5,410.1h10.8v1.2h-12.1v-18.4h12v1.2h-10.7v7.1h10.3v1.2h-10.3V410.1L327.5,410.1z"/>
			<path class="st0" d="M356.5,411.3l-4.4-8.1H346v8.1h-1.3v-18.4h7.7c3.8,0,5.1,2.4,5.1,5.1c0,2.7-1.1,4.5-4,5l4.5,8.3H356.5z
				 M346,394.2v7.8h6.3c2.7,0,3.8-1.7,3.8-3.9c0-2.2-1.1-3.9-3.9-3.9H346L346,394.2z"/>
			<path class="st0" d="M374.8,392.9v1.2h-6.4v17.2h-1.3v-17.2h-6.4v-1.2H374.8z"/>
			<path class="st0" d="M377.2,402.1c0-6.1,3.4-9.8,8.4-9.8c4.9,0,8.4,3.6,8.4,9.8c0,6.1-3.4,9.8-8.4,9.8
				C380.7,411.9,377.2,408.3,377.2,402.1z M392.6,402.1c0-5.3-2.9-8.5-7-8.5s-7,3.2-7,8.5c0,5.3,2.9,8.5,7,8.5
				S392.6,407.5,392.6,402.1z"/>
			<path class="st0" d="M421.7,411.3l-4.4-8.1h-6.1v8.1h-1.3v-18.4h7.7c3.8,0,5.1,2.4,5.1,5.1c0,2.7-1.1,4.5-4,5l4.5,8.3H421.7z
				 M411.2,394.2v7.8h6.3c2.7,0,3.8-1.7,3.8-3.9c0-2.2-1.1-3.9-3.9-3.9H411.2L411.2,394.2z"/>
			<path class="st0" d="M430.4,411.3h-1.3v-18.4h1.3V411.3z"/>
			<path class="st0" d="M436.2,402.1c0-6,3.2-9.7,8.3-9.7c5.1,0,6.9,2.4,7.4,6.7l-1.3,0.1c-0.5-3.6-2.7-5.6-6.2-5.6
				s-6.9,3.2-6.9,8.5s2.6,8.5,6.9,8.5c4.3,0,5.4-1.8,6.2-5.3l1.3,0.2c-0.8,4-3.4,6.4-7.6,6.4C440.2,411.9,436.2,408,436.2,402.1z"/>
			<path class="st0" d="M456.5,402.1c0-6.1,3.4-9.8,8.4-9.8s8.4,3.6,8.4,9.8c0,6.1-3.4,9.8-8.4,9.8S456.5,408.3,456.5,402.1z
				 M471.9,402.1c0-5.3-2.9-8.5-7-8.5s-7,3.2-7,8.5c0,5.3,2.9,8.5,7,8.5S471.9,407.5,471.9,402.1z"/>
		</g>
		<polyline class="st0" points="353.4,347.9 362.4,341.7 363.7,344.8 353.9,349.2 		"/>
		<rect x="238.3" y="420.5" class="st0" width="235" height="0.3"/>
		<g>
			<g>
				<path class="st0" d="M416.1,431.6h0.8v2c-0.2,0.2-0.5,0.4-0.8,0.5c-0.3,0.1-0.6,0.2-0.9,0.2c-0.3,0-0.8-0.1-1.2-0.3
					c-0.4-0.2-0.7-0.5-0.8-0.9c-0.2-0.4-0.3-0.8-0.3-1.3c0-0.5,0.1-0.9,0.3-1.3c0.2-0.4,0.5-0.7,0.8-0.9c0.4-0.2,0.8-0.3,1.2-0.3
					c0.4,0,0.7,0.1,1,0.2c0.3,0.1,0.5,0.3,0.8,0.6l-0.5,0.6c-0.3-0.4-0.7-0.6-1.2-0.6s-0.6,0.1-0.8,0.2c-0.3,0.2-0.4,0.3-0.5,0.6
					c-0.1,0.2-0.2,0.6-0.2,0.9c0,0.3,0.1,0.6,0.2,0.9c0.1,0.2,0.3,0.5,0.5,0.6s0.5,0.2,0.8,0.2c0.3,0,0.7-0.1,0.9-0.2L416.1,431.6
					L416.1,431.6z"/>
				<path class="st0" d="M419,433.6c-0.3-0.4-0.5-1-0.5-1.7v-2.8h0.8v2.8c0,1,0.4,1.5,1.1,1.5s1.1-0.5,1.1-1.5v-2.8h0.8v2.8
					c0,0.7-0.2,1.3-0.5,1.7c-0.3,0.4-0.8,0.6-1.4,0.6S419.3,434,419,433.6L419,433.6z"/>
				<path class="st0" d="M426.9,433h-2.2l-0.4,1.2h-0.8l2-5h0.8l2,5h-0.8L426.9,433L426.9,433z M426.6,432.2l-0.8-2.2l-0.8,2.2
					H426.6z"/>
				<path class="st0" d="M430.9,432.4v1.7h-0.8v-1.7l-1.7-3.2h0.9l1.3,2.4l1.3-2.4h0.8L430.9,432.4z"/>
				<path class="st0" d="M437.6,429.2v5H437l-2.4-3.4v3.4h-0.8v-5h0.7l2.4,3.4v-3.4H437.6z"/>
				<path class="st0" d="M442.2,433h-2.2l-0.4,1.2h-0.8l2-5h0.8l2,5h-0.8L442.2,433L442.2,433z M442,432.2l-0.8-2.2l-0.8,2.2H442z"
					/>
				<path class="st0" d="M448.4,432c0.1,0.2,0.2,0.5,0.2,0.8c0,0.3-0.1,0.7-0.4,1c-0.3,0.2-0.7,0.3-1.3,0.3h-2.2v-5h2
					c0.5,0,0.9,0.1,1.2,0.3c0.3,0.2,0.4,0.5,0.4,1c0,0.4,0,0.5-0.1,0.7c-0.1,0.2-0.3,0.3-0.4,0.5C448,431.6,448.2,431.8,448.4,432
					L448.4,432z M445.5,429.9v1.4h1.2c0.3,0,0.5,0,0.7-0.2c0.1-0.1,0.2-0.3,0.2-0.5c0-0.2-0.1-0.4-0.2-0.5c-0.1-0.1-0.4-0.2-0.7-0.2
					L445.5,429.9L445.5,429.9z M447.8,432.7c0-0.5-0.3-0.7-0.9-0.7h-1.3v1.5h1.3C447.5,433.4,447.8,433.2,447.8,432.7L447.8,432.7z"
					/>
				<path class="st0" d="M450.9,433.9c-0.4-0.2-0.7-0.5-0.8-0.9c-0.2-0.4-0.3-0.8-0.3-1.3c0-0.5,0.1-0.9,0.3-1.3
					c0.2-0.4,0.5-0.7,0.8-0.9s0.8-0.3,1.2-0.3s0.8,0.1,1.2,0.3s0.7,0.5,0.8,0.9c0.2,0.4,0.3,0.8,0.3,1.3c0,0.5-0.1,0.9-0.3,1.3
					c-0.2,0.4-0.5,0.7-0.8,0.9s-0.8,0.3-1.2,0.3S451.3,434.1,450.9,433.9z M452.9,433.2c0.2-0.2,0.4-0.4,0.5-0.6
					c0.1-0.2,0.2-0.6,0.2-0.9c0-0.3-0.1-0.6-0.2-0.9c-0.1-0.2-0.3-0.5-0.5-0.6c-0.2-0.2-0.5-0.2-0.8-0.2c-0.3,0-0.5,0.1-0.8,0.2
					c-0.2,0.2-0.4,0.4-0.5,0.6c-0.1,0.2-0.2,0.6-0.2,0.9c0,0.3,0.1,0.6,0.2,0.9c0.1,0.2,0.3,0.5,0.5,0.6c0.2,0.2,0.5,0.2,0.8,0.2
					C452.4,433.4,452.7,433.3,452.9,433.2z"/>
				<path class="st0" d="M461.1,429.4c0.3,0.1,0.5,0.3,0.7,0.6c0.1,0.2,0.2,0.6,0.2,1c0,0.4-0.1,0.7-0.2,1c-0.1,0.2-0.4,0.5-0.7,0.6
					c-0.3,0.1-0.6,0.2-1,0.2h-1v1.5h-0.8v-5h1.8C460.5,429.2,460.8,429.3,461.1,429.4L461.1,429.4z M460.9,431.7
					c0.2-0.2,0.3-0.4,0.3-0.7c0-0.3-0.1-0.6-0.3-0.7c-0.2-0.2-0.4-0.2-0.8-0.2h-0.9v2h0.9C460.4,431.9,460.7,431.8,460.9,431.7
					L460.9,431.7z"/>
				<path class="st0" d="M466.3,434.2l-0.9-1.5c0,0-0.1,0-0.2,0h-1v1.5h-0.8v-5h1.8c0.4,0,0.7,0.1,1,0.2c0.3,0.1,0.5,0.3,0.7,0.6
					c0.1,0.2,0.2,0.6,0.2,1c0,0.4-0.1,0.7-0.3,1c-0.1,0.2-0.4,0.5-0.7,0.6l1,1.6H466.3L466.3,434.2z M466,430.2
					c-0.2-0.2-0.4-0.2-0.8-0.2h-0.9v2h0.9c0.4,0,0.6-0.1,0.8-0.2c0.2-0.2,0.3-0.4,0.3-0.7C466.3,430.6,466.2,430.4,466,430.2
					L466,430.2z"/>
			</g>
			<g>
				<path class="st0" d="M244.4,429.2h0.8v5h-0.8V429.2z"/>
				<path class="st0" d="M250.9,429.2v5h-0.7l-2.4-3.4v3.4H247v-5h0.7l2.4,3.4v-3.4H250.9z"/>
				<path class="st0" d="M253.6,430h-1.5v-0.8h3.7v0.8h-1.5v4.2h-0.8V430z"/>
				<path class="st0" d="M260.3,433.4v0.8H257v-5h3.2v0.8h-2.4v1.3h2.1v0.7h-2.1v1.4H260.3z"/>
				<path class="st0" d="M264.7,434.2l-0.9-1.5c0,0-0.1,0-0.2,0h-1v1.5h-0.8v-5h1.8c0.4,0,0.7,0.1,1,0.2c0.3,0.1,0.5,0.3,0.7,0.6
					c0.1,0.2,0.2,0.6,0.2,1c0,0.4-0.1,0.7-0.3,1c-0.1,0.2-0.4,0.5-0.7,0.6l1,1.6C265.6,434.2,264.7,434.2,264.7,434.2z M264.5,430.2
					c-0.2-0.2-0.4-0.2-0.8-0.2h-0.9v2h0.9c0.4,0,0.6-0.1,0.8-0.2c0.2-0.2,0.3-0.4,0.3-0.7C264.7,430.6,264.6,430.4,264.5,430.2
					L264.5,430.2z"/>
				<path class="st0" d="M269.9,433h-2.2l-0.4,1.2h-0.8l2-5h0.8l2,5h-0.8L269.9,433z M269.6,432.2l-0.8-2.2l-0.8,2.2H269.6z"/>
				<path class="st0" d="M273.1,433.9c-0.4-0.2-0.6-0.5-0.8-0.9c-0.2-0.4-0.3-0.8-0.3-1.3c0-0.5,0.1-0.9,0.3-1.3
					c0.2-0.4,0.5-0.7,0.8-0.9s0.8-0.3,1.2-0.3s0.7,0.1,1,0.2c0.3,0.1,0.5,0.3,0.8,0.6l-0.5,0.6c-0.3-0.4-0.7-0.6-1.2-0.6
					s-0.6,0.1-0.8,0.2c-0.3,0.2-0.4,0.4-0.5,0.6c-0.1,0.2-0.2,0.6-0.2,0.9c0,0.3,0.1,0.6,0.2,0.9c0.1,0.2,0.3,0.5,0.5,0.6
					s0.5,0.2,0.8,0.2c0.5,0,0.8-0.2,1.2-0.6l0.5,0.6c-0.2,0.3-0.4,0.5-0.8,0.6c-0.3,0.1-0.6,0.2-1,0.2S273.5,434.1,273.1,433.9z"/>
				<path class="st0" d="M278.2,433.9c-0.4-0.2-0.6-0.5-0.8-0.9c-0.2-0.4-0.3-0.8-0.3-1.3c0-0.5,0.1-0.9,0.3-1.3
					c0.2-0.4,0.5-0.7,0.8-0.9c0.4-0.2,0.8-0.3,1.2-0.3s0.7,0.1,1,0.2c0.3,0.1,0.5,0.3,0.8,0.6l-0.5,0.6c-0.3-0.4-0.7-0.6-1.2-0.6
					s-0.6,0.1-0.8,0.2c-0.3,0.2-0.4,0.4-0.5,0.6c-0.1,0.2-0.2,0.6-0.2,0.9c0,0.3,0.1,0.6,0.2,0.9c0.1,0.2,0.3,0.5,0.5,0.6
					s0.5,0.2,0.8,0.2c0.5,0,0.8-0.2,1.2-0.6l0.5,0.6c-0.2,0.3-0.4,0.5-0.8,0.6c-0.3,0.2-0.6,0.2-1,0.2S278.6,434.1,278.2,433.9z"/>
				<path class="st0" d="M282.5,429.2h0.8v5h-0.8V429.2z"/>
				<path class="st0" d="M286,433.9c-0.4-0.2-0.7-0.5-0.8-0.9c-0.2-0.4-0.3-0.8-0.3-1.3c0-0.5,0.1-0.9,0.3-1.3
					c0.2-0.4,0.5-0.7,0.8-0.9c0.4-0.2,0.8-0.3,1.2-0.3s0.8,0.1,1.2,0.3c0.4,0.2,0.7,0.5,0.8,0.9c0.2,0.4,0.3,0.8,0.3,1.3
					c0,0.5-0.1,0.9-0.3,1.3c-0.2,0.4-0.5,0.7-0.8,0.9c-0.4,0.2-0.8,0.3-1.2,0.3S286.3,434.1,286,433.9z M288,433.2
					c0.2-0.2,0.4-0.4,0.5-0.6s0.2-0.6,0.2-0.9c0-0.3-0.1-0.6-0.2-0.9c-0.1-0.2-0.3-0.5-0.5-0.6s-0.5-0.2-0.8-0.2s-0.5,0.1-0.8,0.2
					c-0.2,0.2-0.4,0.4-0.5,0.6s-0.2,0.6-0.2,0.9c0,0.3,0.1,0.6,0.2,0.9c0.1,0.2,0.3,0.5,0.5,0.6s0.5,0.2,0.8,0.2
					S287.7,433.3,288,433.2z M287.5,427.8h0.9l-1.1,1h-0.7L287.5,427.8z"/>
				<path class="st0" d="M294.9,429.2v5h-0.7l-2.4-3.4v3.4H291v-5h0.7l2.4,3.4v-3.4H294.9z"/>
			</g>
			<g>
				<path class="st0" d="M314.5,433h-2.2l-0.4,1.2H311l2-5h0.8l2,5h-0.8L314.5,433L314.5,433z M314.2,432.2l-0.8-2.2l-0.8,2.2H314.2
					z"/>
				<path class="st0" d="M319.8,434.2l-0.9-1.5c0,0-0.1,0-0.2,0h-1v1.5H317v-5h1.8c0.4,0,0.7,0.1,1,0.2c0.3,0.1,0.5,0.3,0.7,0.6
					c0.1,0.2,0.2,0.6,0.2,1c0,0.4-0.1,0.7-0.3,1c-0.1,0.2-0.4,0.5-0.7,0.6l1,1.6H319.8L319.8,434.2z M319.5,430.2
					c-0.2-0.2-0.4-0.2-0.8-0.2h-0.9v2h0.9c0.4,0,0.6-0.1,0.8-0.2c0.2-0.2,0.3-0.4,0.3-0.7C319.8,430.6,319.7,430.4,319.5,430.2
					L319.5,430.2z"/>
				<path class="st0" d="M326.2,434.2v-3.3l-1.5,2.7h-0.4l-1.4-2.7v3.2h-0.8v-5h0.7l1.8,3.3l1.7-3.3h0.7v5L326.2,434.2L326.2,434.2z
					"/>
				<path class="st0" d="M329.6,433.9c-0.4-0.2-0.7-0.5-0.8-0.9c-0.2-0.4-0.3-0.8-0.3-1.3c0-0.5,0.1-0.9,0.3-1.3
					c0.2-0.4,0.5-0.7,0.8-0.9c0.4-0.2,0.8-0.3,1.2-0.3s0.8,0.1,1.2,0.3s0.7,0.5,0.8,0.9c0.2,0.4,0.3,0.8,0.3,1.3
					c0,0.5-0.1,0.9-0.3,1.3c-0.2,0.4-0.5,0.7-0.8,0.9c-0.4,0.2-0.8,0.3-1.2,0.3S329.9,434.1,329.6,433.9L329.6,433.9z M331.6,433.2
					c0.2-0.2,0.4-0.4,0.5-0.6s0.2-0.6,0.2-0.9c0-0.3-0.1-0.6-0.2-0.9c-0.1-0.2-0.3-0.5-0.5-0.6s-0.5-0.2-0.8-0.2
					c-0.3,0-0.5,0.1-0.8,0.2c-0.2,0.2-0.4,0.4-0.5,0.6c-0.1,0.2-0.2,0.6-0.2,0.9c0,0.3,0.1,0.6,0.2,0.9c0.1,0.2,0.3,0.5,0.5,0.6
					s0.5,0.2,0.8,0.2C331.1,433.4,331.3,433.3,331.6,433.2L331.6,433.2z"/>
				<path class="st0" d="M338.5,429.2v5h-0.7l-2.4-3.4v3.4h-0.8v-5h0.7l2.4,3.4v-3.4H338.5z"/>
				<path class="st0" d="M341,427.8h0.9l-1.1,1h-0.7L341,427.8z M340.3,429.2h0.8v5h-0.8V429.2z"/>
				<path class="st0" d="M345.8,433h-2.2l-0.4,1.2h-0.8l2-5h0.8l2,5h-0.8L345.8,433z M345.5,432.2l-0.8-2.2l-0.8,2.2H345.5z"/>
			</g>
			<g>
				<path class="st0" d="M367.1,429.2v5h-0.8V432H364v2.1h-0.8v-5h0.8v2h2.3v-2H367.1z"/>
				<path class="st0" d="M368.9,429.2h0.8v5h-0.8V429.2z"/>
				<path class="st0" d="M371.8,434c-0.3-0.1-0.5-0.2-0.7-0.4l0.3-0.7c0.2,0.2,0.4,0.3,0.7,0.4c0.3,0.1,0.5,0.2,0.8,0.2
					c0.3,0,0.6,0,0.7-0.2c0.1-0.1,0.3-0.3,0.3-0.5c0-0.2,0-0.2-0.1-0.3c-0.1-0.1-0.2-0.2-0.3-0.2c-0.1,0-0.3-0.1-0.5-0.2
					c-0.3-0.1-0.6-0.2-0.8-0.3c-0.2-0.1-0.4-0.2-0.5-0.4c-0.1-0.2-0.2-0.5-0.2-0.8s0.1-0.5,0.2-0.7c0.1-0.2,0.3-0.4,0.6-0.5
					c0.3-0.1,0.6-0.2,1-0.2c0.4,0,0.5,0,0.8,0.1c0.3,0.1,0.5,0.2,0.7,0.3l-0.3,0.7c-0.2-0.1-0.4-0.2-0.6-0.3
					c-0.2-0.1-0.4-0.1-0.6-0.1c-0.3,0-0.5,0-0.7,0.2c-0.1,0.1-0.2,0.3-0.2,0.5s0,0.2,0.1,0.3c0.1,0.1,0.2,0.2,0.3,0.2
					c0.1,0,0.3,0.1,0.5,0.2c0.3,0.1,0.6,0.2,0.8,0.2s0.4,0.2,0.5,0.4c0.1,0.2,0.2,0.5,0.2,0.7c0,0.3-0.1,0.5-0.2,0.7
					c-0.1,0.2-0.3,0.4-0.6,0.5c-0.3,0.1-0.6,0.2-1,0.2C372.5,434.2,372.2,434.2,371.8,434L371.8,434z"/>
				<path class="st0" d="M376.8,430h-1.5v-0.8h3.7v0.8h-1.5v4.2h-0.8V430z"/>
				<path class="st0" d="M381.1,433.9c-0.4-0.2-0.7-0.5-0.8-0.9c-0.2-0.4-0.3-0.8-0.3-1.3c0-0.5,0.1-0.9,0.3-1.3
					c0.2-0.4,0.5-0.7,0.8-0.9c0.4-0.2,0.8-0.3,1.2-0.3c0.4,0,0.8,0.1,1.2,0.3s0.7,0.5,0.8,0.9c0.2,0.4,0.3,0.8,0.3,1.3
					c0,0.5-0.1,0.9-0.3,1.3c-0.2,0.4-0.5,0.7-0.8,0.9s-0.8,0.3-1.2,0.3C381.9,434.2,381.5,434.1,381.1,433.9z M383.1,433.2
					c0.2-0.2,0.4-0.4,0.5-0.6c0.1-0.2,0.2-0.6,0.2-0.9c0-0.3-0.1-0.6-0.2-0.9c-0.1-0.2-0.3-0.5-0.5-0.6s-0.5-0.2-0.8-0.2
					s-0.5,0.1-0.8,0.2c-0.2,0.2-0.4,0.4-0.5,0.6s-0.2,0.6-0.2,0.9c0,0.3,0.1,0.6,0.2,0.9c0.1,0.2,0.3,0.5,0.5,0.6s0.5,0.2,0.8,0.2
					S382.9,433.3,383.1,433.2z"/>
				<path class="st0" d="M389,434.2l-0.9-1.5c0,0-0.1,0-0.2,0h-1v1.5h-0.8v-5h1.8c0.4,0,0.7,0.1,1,0.2c0.3,0.1,0.5,0.3,0.7,0.6
					c0.1,0.2,0.2,0.6,0.2,1c0,0.4-0.1,0.7-0.3,1c-0.1,0.2-0.4,0.5-0.7,0.6l1,1.6H389L389,434.2z M388.7,430.2
					c-0.2-0.2-0.4-0.2-0.8-0.2H387v2h0.9c0.4,0,0.6-0.1,0.8-0.2s0.3-0.4,0.3-0.7C389,430.6,388.9,430.4,388.7,430.2L388.7,430.2z"/>
				<path class="st0" d="M391.4,429.2h0.8v5h-0.8V429.2z"/>
				<path class="st0" d="M396.8,433h-2.2l-0.4,1.2h-0.8l2-5h0.8l2,5h-0.8L396.8,433z M396.5,432.2l-0.8-2.2l-0.8,2.2H396.5z"/>
			</g>
			<rect x="405.3" y="421" class="st0" width="0.3" height="19.6"/>
			<ellipse class="st0" cx="303" cy="431.8" rx="0.7" ry="0.8"/>
			<ellipse class="st0" cx="355.1" cy="431.8" rx="0.7" ry="0.8"/>
		</g>
	</g>
</g>
<g>
	<g>
		<g>
			<polygon class="st0" points="389.2,552.3 389.2,699.3 363.7,699.3 363.7,615.1 346.7,615.1 346.7,552.3 			"/>
			<polygon class="st0" points="344.6,552.3 344.6,615.1 337.1,615.1 337.1,699.3 312.6,699.3 312.6,615.1 301.6,615.1 301.6,552.3 
							"/>
			<polygon class="st0" points="299.5,552.3 299.5,615.1 284.5,615.1 284.5,699.3 257,699.3 257,552.3 			"/>
		</g>
		<path class="st0" d="M407.9,722.3H238.3v-193h169.6L407.9,722.3L407.9,722.3z M240.9,719.4h164.5V532.2H240.9V719.4z"/>
		<path class="st0" d="M401.1,714.7H245V537h156.1V714.7L401.1,714.7z M245.7,713.9h154.8V537.8H245.7V713.9z"/>
	</g>
	<g>
		<g>
			<path class="st0" d="M425.7,578.1v-47h11.5l11.3,32.9c0.6,1.9,0.9,3.2,1.2,4.7h0.1c0.2-1.5,0.6-2.8,1.2-4.8l11.3-32.9h11.6v47
				h-7.3v-34.2c0-1.9,0.1-3.9,0.3-5.5h-0.2c-0.2,1.1-0.9,3.5-1.5,5.2l-12,34.5H446l-12-34.6c-0.6-1.6-1.1-3.9-1.3-5.2h-0.2
				c0.2,1.5,0.2,3.4,0.2,5.5v34.2L425.7,578.1L425.7,578.1z"/>
			<path class="st0" d="M483.4,531.1h8V559c0,7.6,4.2,12.9,11.6,12.9c7.4,0,11.6-5.4,11.6-12.9v-27.9h8v28.5
				c0,11.7-7.1,19.8-19.6,19.8s-19.6-8.1-19.6-19.8L483.4,531.1L483.4,531.1z"/>
			<path class="st0" d="M527.9,565.8l6.7-3.4c2,5.9,6.6,10.1,14.4,10.1s10.2-2,10.2-7s-2.5-6.1-7.8-7l-8.8-1.4
				c-7.8-1.4-12.3-5.5-12.3-13.4c0-8,6.6-13.9,17.8-13.9s16.3,3.8,19,11.9l-6.2,3.8c-1.8-5.6-6.2-8.8-13.2-8.8s-9.5,2.3-9.5,6.4
				s2.1,5.7,7.4,6.6l8.6,1.4c8.5,1.5,13.1,5.2,13.1,13.5c0,8.3-6.3,14.8-18.5,14.8S530.4,574.2,527.9,565.8L527.9,565.8z"/>
			<path class="st0" d="M582.5,571.2h25v7h-32.9v-47h32.5v7h-24.5v12.6h23.5v6.8h-23.5L582.5,571.2L582.5,571.2z"/>
			<path class="st0" d="M612.2,554.6c0-15.2,9.1-24.8,22.9-24.8c13.8,0,22.8,9.7,22.8,24.8s-9,24.8-22.8,24.8
				C621.3,579.5,612.2,569.6,612.2,554.6L612.2,554.6z M649.7,554.6c0-10.8-5.6-17.7-14.5-17.7c-8.9,0-14.6,6.9-14.6,17.7
				c0,10.8,5.6,17.7,14.6,17.7C644.1,572.3,649.7,565.4,649.7,554.6z"/>
			<path class="st0" d="M683.8,578.1v-47h19c13.3,0,22.1,8.8,22.1,23.1c0,14.3-9,24-22.2,24L683.8,578.1L683.8,578.1z M691.8,571.2
				h10.6c9,0,14.3-7,14.3-17s-5.5-16.2-14.4-16.2h-10.5V571.2L691.8,571.2z"/>
			<path class="st0" d="M740,571.2h25v7h-32.9v-47h32.5v7h-24.5v12.6h23.5v6.8h-23.5L740,571.2L740,571.2z"/>
			<path class="st0" d="M425.7,641.9v-44.4h7.5v37.4H455v7L425.7,641.9L425.7,641.9z"/>
			<path class="st0" d="M493.5,641.9l-3.9-10.8h-19.3l-3.9,10.8h-7.8l17.2-44.4h8.4l17.2,44.4H493.5L493.5,641.9z M472.6,624.8h14.7
				l-5.7-15.8c-0.5-1.4-1.2-3.4-1.6-5.2h-0.1c-0.4,1.7-1.1,3.8-1.5,5.2L472.6,624.8z"/>
			<path class="st0" d="M524.6,641.9v-44.4h10.9l10.7,31.1c0.6,1.8,0.9,3,1.1,4.4h0.1c0.2-1.4,0.5-2.6,1.2-4.5l10.7-31.1h11v44.4
				h-6.9v-32.4c0-1.8,0.1-3.7,0.3-5.2h-0.2c-0.2,1-0.8,3.3-1.4,5l-11.3,32.6h-6.9l-11.3-32.7c-0.5-1.5-1.1-3.7-1.3-4.9h-0.2
				c0.2,1.4,0.2,3.2,0.2,5.2v32.4L524.6,641.9L524.6,641.9z"/>
			<path class="st0" d="M579.2,597.4h7.5v26.4c0,7.1,4,12.2,11,12.2c7.1,0,11-5.1,11-12.2v-26.4h7.5v27c0,11.1-6.7,18.7-18.5,18.7
				c-11.9,0-18.5-7.6-18.5-18.8L579.2,597.4L579.2,597.4z"/>
			<path class="st0" d="M621.3,630.2l6.3-3.2c1.8,5.6,6.2,9.5,13.6,9.5s9.7-1.9,9.7-6.6c0-4.7-2.4-5.7-7.4-6.6l-8.4-1.3
				c-7.4-1.3-11.6-5.2-11.6-12.7c0-7.6,6.3-13.1,16.8-13.1s15.4,3.7,18,11.2l-5.9,3.6c-1.7-5.3-5.9-8.3-12.4-8.3c-6.5,0-9,2.2-9,6.1
				s1.9,5.4,7,6.2l8.2,1.4c8.1,1.4,12.4,5,12.4,12.8c0,7.8-6,14-17.5,14C629.5,643.1,623.6,638.1,621.3,630.2L621.3,630.2z"/>
			<path class="st0" d="M672.8,641.9h-7.5v-44.4h7.5V641.9z"/>
			<path class="st0" d="M679.6,619.6c0-14,8.3-23.5,21.5-23.5s17.7,6.2,19.4,16.1l-7.7,1.3c-1.2-6.7-5.3-10.6-12-10.6
				c-6.7,0-13.4,6.5-13.4,16.5c0,10,5.1,16.6,13.6,16.6s10.5-3.7,12-10.1l7.5,1.7c-2.3,9.4-9,15.3-19.7,15.3
				C690,643.1,679.6,633.4,679.6,619.6L679.6,619.6z"/>
			<path class="st0" d="M756.7,641.9l-3.9-10.8h-19.3l-3.9,10.8h-7.8l17.2-44.4h8.4l17.2,44.4H756.7L756.7,641.9z M735.8,624.8h14.7
				l-5.7-15.8c-0.5-1.4-1.2-3.4-1.6-5.2H743c-0.4,1.7-1.1,3.8-1.5,5.2L735.8,624.8L735.8,624.8z"/>
		</g>
		<g>
			<path class="st0" d="M425.7,687.2v-26.6h9.6c7.2,0,12,4.7,12,13.1c0,8.4-5,13.5-12,13.5L425.7,687.2L425.7,687.2z M427.6,685.4
				h7.7c6.1,0,10-4.4,10-11.7c0-7.3-4-11.2-10.1-11.2h-7.6V685.4z"/>
			<path class="st0" d="M457.5,685.4h15.6v1.8h-17.5v-26.6h17.3v1.8h-15.4v10.3h14.9v1.8h-14.9V685.4L457.5,685.4z"/>
			<path class="st0" d="M508,660.6c4.6,0,7.5,2.9,7.5,7.6c0,4.7-2.9,7.9-7.7,7.9h-9v11.2h-1.9v-26.6L508,660.6L508,660.6z
				 M507.8,674.2c3.5,0,5.6-2.3,5.6-6.1c0-3.7-2.2-5.7-5.7-5.7h-9v11.7H507.8z"/>
			<path class="st0" d="M522.6,660.6h1.9V677c0,5.4,2.9,9.1,8.2,9.1s8.2-3.7,8.2-9.1v-16.4h1.9v16.5c0,6.5-3.6,10.9-10.1,10.9
				c-6.4,0-10.1-4.4-10.1-10.9L522.6,660.6L522.6,660.6z"/>
			<path class="st0" d="M554.6,685.4h15.6v1.8h-17.5v-26.6H570v1.8h-15.4v10.3h14.9v1.8h-14.9V685.4L554.6,685.4z"/>
			<path class="st0" d="M596.4,687.2l-6.4-11.6h-8.8v11.6h-1.9v-26.6h11.2c5.5,0,7.4,3.5,7.4,7.4s-1.6,6.5-5.7,7.3l6.5,11.9H596.4z
				 M581.3,662.4v11.3h9.2c3.9,0,5.5-2.5,5.5-5.7s-1.5-5.6-5.6-5.6H581.3L581.3,662.4z"/>
			<path class="st0" d="M622.9,660.6v1.8h-9.2v24.8h-1.9v-24.8h-9.2v-1.8H622.9z"/>
			<path class="st0" d="M626.4,673.9c0-8.9,5-14.1,12.1-14.1c7.1,0,12.1,5.2,12.1,14.1s-5,14.1-12.1,14.1
				C631.3,688,626.4,682.8,626.4,673.9z M648.6,673.9c0-7.7-4.2-12.2-10.1-12.2c-6,0-10.1,4.6-10.1,12.2s4.2,12.2,10.1,12.2
				C644.4,686.2,648.6,681.6,648.6,673.9z"/>
			<path class="st0" d="M690.5,687.2l-6.4-11.6h-8.8v11.6h-1.9v-26.6h11.2c5.5,0,7.4,3.5,7.4,7.4s-1.6,6.5-5.7,7.3l6.5,11.9H690.5z
				 M675.4,662.4v11.3h9.2c3.9,0,5.5-2.5,5.5-5.7s-1.5-5.6-5.6-5.6H675.4L675.4,662.4z"/>
			<path class="st0" d="M703.1,687.2h-1.8v-26.6h1.8V687.2z"/>
			<path class="st0" d="M711.5,673.9c0-8.6,4.6-14,12-14c7.4,0,9.9,3.5,10.7,9.7l-1.9,0.2c-0.7-5.2-4-8-8.9-8s-9.9,4.6-9.9,12.2
				c0,7.7,3.7,12.2,10,12.2c6.2,0,7.8-2.6,8.9-7.6l1.9,0.3c-1.2,5.8-4.8,9.2-10.9,9.2C717.2,688,711.5,682.4,711.5,673.9z"/>
			<path class="st0" d="M740.8,673.9c0-8.9,5-14.1,12.1-14.1s12.1,5.2,12.1,14.1s-5,14.1-12.1,14.1S740.8,682.8,740.8,673.9z
				 M763.1,673.9c0-7.7-4.2-12.2-10.1-12.2s-10.1,4.6-10.1,12.2s4.2,12.2,10.1,12.2S763.1,681.6,763.1,673.9z"/>
		</g>
		<polyline class="st0" points="591.9,595.6 604.9,586.6 606.8,591.1 592.7,597.5 		"/>
		<rect x="425.7" y="700.4" class="st0" width="339.3" height="0.5"/>
		<g>
			<g>
				<path class="st0" d="M682.5,716.4h1.1v2.9c-0.3,0.3-0.7,0.5-1.2,0.7c-0.4,0.2-0.9,0.2-1.3,0.2s-1.2-0.2-1.7-0.5
					c-0.5-0.3-0.9-0.8-1.2-1.3c-0.3-0.5-0.4-1.2-0.4-1.9s0.2-1.3,0.4-1.9c0.3-0.5,0.7-1,1.2-1.3c0.5-0.3,1.1-0.5,1.7-0.5
					s1,0.1,1.4,0.3c0.4,0.2,0.8,0.5,1.1,0.9l-0.7,0.8c-0.5-0.5-1.1-0.8-1.7-0.8s-0.8,0.1-1.2,0.3c-0.4,0.2-0.6,0.5-0.8,0.9
					c-0.2,0.4-0.3,0.8-0.3,1.3c0,0.5,0.1,0.9,0.3,1.3c0.2,0.4,0.5,0.7,0.8,0.9s0.7,0.3,1.2,0.3c0.4,0,0.9-0.1,1.3-0.4L682.5,716.4
					L682.5,716.4z"/>
				<path class="st0" d="M686.7,719.4c-0.5-0.5-0.7-1.4-0.7-2.4v-4.1h1.2v4c0,1.4,0.5,2.1,1.6,2.1c1.1,0,1.6-0.7,1.6-2.1v-4h1.2v4.1
					c0,1-0.3,1.9-0.7,2.4c-0.5,0.5-1.2,0.8-2.1,0.8s-1.5-0.3-2.1-0.8H686.7z"/>
				<path class="st0" d="M698,718.5h-3.2l-0.6,1.7H693l2.8-7.2h1.2l2.8,7.2h-1.2L698,718.5L698,718.5z M697.6,717.4l-1.2-3.1
					l-1.2,3.1H697.6z"/>
				<path class="st0" d="M703.9,717.6v2.5h-1.2v-2.5l-2.5-4.7h1.3l1.8,3.5l1.8-3.5h1.2L703.9,717.6z"/>
				<path class="st0" d="M713.5,713v7.2h-0.9l-3.5-4.9v4.9H708V713h0.9l3.5,4.9V713H713.5z"/>
				<path class="st0" d="M720.2,718.5h-3.2l-0.6,1.7h-1.2l2.8-7.2h1.2l2.8,7.2h-1.2L720.2,718.5L720.2,718.5z M719.9,717.4l-1.2-3.1
					l-1.2,3.1H719.9z"/>
				<path class="st0" d="M729.1,717c0.2,0.3,0.3,0.7,0.3,1.1c0,0.5-0.2,1.1-0.6,1.4c-0.4,0.4-1.1,0.5-1.8,0.5h-3.2v-7.2h2.9
					c0.7,0,1.3,0.2,1.7,0.5c0.4,0.4,0.6,0.8,0.6,1.4c0,0.6-0.1,0.7-0.2,1c-0.2,0.3-0.4,0.5-0.6,0.7
					C728.6,716.5,728.9,716.7,729.1,717L729.1,717z M725,714v2h1.7c0.4,0,0.7-0.1,0.9-0.2c0.2-0.2,0.3-0.4,0.3-0.7s-0.1-0.6-0.3-0.7
					c-0.2-0.2-0.5-0.2-0.9-0.2L725,714L725,714z M728.2,718c0-0.7-0.5-1-1.4-1H725v2.1h1.9C727.8,719.1,728.2,718.8,728.2,718
					L728.2,718z"/>
				<path class="st0" d="M732.8,719.7c-0.5-0.3-0.9-0.8-1.2-1.3c-0.3-0.5-0.4-1.2-0.4-1.9s0.2-1.3,0.4-1.9c0.3-0.5,0.7-1,1.2-1.3
					c0.5-0.3,1.1-0.5,1.7-0.5c0.6,0,1.2,0.2,1.7,0.5c0.5,0.3,0.9,0.8,1.2,1.3c0.3,0.5,0.4,1.2,0.4,1.9s-0.2,1.3-0.4,1.9
					c-0.3,0.5-0.7,1-1.2,1.3c-0.5,0.3-1.1,0.5-1.7,0.5C733.9,720.2,733.3,720,732.8,719.7z M735.7,718.7c0.3-0.2,0.6-0.5,0.8-0.9
					c0.2-0.4,0.3-0.8,0.3-1.3c0-0.5-0.1-0.9-0.3-1.3c-0.2-0.4-0.5-0.7-0.8-0.9c-0.3-0.2-0.7-0.3-1.2-0.3s-0.8,0.1-1.2,0.3
					c-0.3,0.2-0.6,0.5-0.8,0.9s-0.3,0.8-0.3,1.3c0,0.5,0.1,0.9,0.3,1.3c0.2,0.4,0.5,0.7,0.8,0.9s0.7,0.3,1.2,0.3
					S735.3,718.9,735.7,718.7z"/>
				<path class="st0" d="M747.5,713.3c0.4,0.2,0.7,0.5,0.9,0.9c0.2,0.4,0.3,0.8,0.3,1.4s-0.1,1-0.3,1.4c-0.2,0.4-0.5,0.7-0.9,0.9
					c-0.4,0.2-0.9,0.3-1.4,0.3h-1.4v2.1h-1.2V713h2.6C746.6,713,747,713.1,747.5,713.3L747.5,713.3z M747.1,716.5
					c0.3-0.2,0.4-0.6,0.4-1.1s-0.2-0.8-0.4-1.1c-0.3-0.2-0.6-0.4-1.2-0.4h-1.4v2.9h1.4C746.5,716.9,746.9,716.8,747.1,716.5
					L747.1,716.5z"/>
				<path class="st0" d="M754.9,720.1l-1.3-2.1c-0.1,0-0.2,0-0.3,0H752v2.1h-1.2V713h2.6c0.5,0,1,0.1,1.4,0.3
					c0.4,0.2,0.7,0.5,0.9,0.9c0.2,0.4,0.3,0.8,0.3,1.4s-0.1,1-0.4,1.4c-0.2,0.4-0.6,0.7-1,0.9l1.5,2.3H754.9L754.9,720.1z
					 M754.5,714.4c-0.3-0.2-0.6-0.4-1.2-0.4H752v2.9h1.4c0.5,0,0.9-0.1,1.2-0.4c0.3-0.2,0.4-0.6,0.4-1.1S754.8,714.7,754.5,714.4
					L754.5,714.4z"/>
			</g>
			<g>
				<path class="st0" d="M434.5,713h1.2v7.2h-1.2V713z"/>
				<path class="st0" d="M443.9,713v7.2H443l-3.5-4.9v4.9h-1.2V713h0.9l3.5,4.9V713H443.9z"/>
				<path class="st0" d="M447.8,714.1h-2.1V713h5.4v1.1H449v6.1h-1.2V714.1z"/>
				<path class="st0" d="M457.5,719v1.1h-4.7V713h4.6v1.1H454v1.9h3.1v1.1H454v2H457.5z"/>
				<path class="st0" d="M463.9,720.1l-1.3-2.1c-0.1,0-0.2,0-0.3,0H461v2.1h-1.2V713h2.6c0.5,0,1,0.1,1.4,0.3
					c0.4,0.2,0.7,0.5,0.9,0.9c0.2,0.4,0.3,0.8,0.3,1.4s-0.1,1-0.4,1.4c-0.2,0.4-0.6,0.7-1,0.9l1.5,2.3
					C465.2,720.1,463.9,720.1,463.9,720.1z M463.5,714.4c-0.3-0.2-0.6-0.4-1.2-0.4H461v2.9h1.4c0.5,0,0.9-0.1,1.2-0.4
					c0.3-0.2,0.4-0.6,0.4-1.1S463.8,714.7,463.5,714.4L463.5,714.4z"/>
				<path class="st0" d="M471.3,718.5h-3.2l-0.6,1.7h-1.2l2.8-7.2h1.2l2.8,7.2H472L471.3,718.5z M471,717.4l-1.2-3.1l-1.2,3.1H471z"
					/>
				<path class="st0" d="M476,719.7c-0.5-0.3-0.9-0.8-1.2-1.3s-0.4-1.2-0.4-1.9s0.2-1.3,0.4-1.9c0.3-0.5,0.7-1,1.2-1.3
					c0.5-0.3,1.1-0.5,1.7-0.5c0.6,0,1,0.1,1.4,0.3c0.4,0.2,0.8,0.5,1.1,0.9l-0.7,0.8c-0.5-0.5-1-0.8-1.7-0.8c-0.7,0-0.8,0.1-1.2,0.3
					c-0.4,0.2-0.6,0.5-0.8,0.9c-0.2,0.4-0.3,0.8-0.3,1.3c0,0.5,0.1,0.9,0.3,1.3c0.2,0.4,0.5,0.7,0.8,0.9c0.3,0.2,0.7,0.3,1.2,0.3
					c0.7,0,1.2-0.3,1.7-0.8l0.7,0.8c-0.3,0.4-0.6,0.7-1.1,0.9c-0.4,0.2-0.9,0.3-1.4,0.3C477.2,720.2,476.6,720,476,719.7z"/>
				<path class="st0" d="M483.4,719.7c-0.5-0.3-0.9-0.8-1.2-1.3c-0.3-0.5-0.4-1.2-0.4-1.9s0.2-1.3,0.4-1.9c0.3-0.5,0.7-1,1.2-1.3
					c0.5-0.3,1.1-0.5,1.7-0.5c0.6,0,1,0.1,1.4,0.3c0.4,0.2,0.8,0.5,1.1,0.9l-0.7,0.8c-0.5-0.5-1-0.8-1.7-0.8c-0.7,0-0.8,0.1-1.2,0.3
					c-0.4,0.2-0.6,0.5-0.8,0.9c-0.2,0.4-0.3,0.8-0.3,1.3c0,0.5,0.1,0.9,0.3,1.3c0.2,0.4,0.5,0.7,0.8,0.9s0.7,0.3,1.2,0.3
					c0.7,0,1.2-0.3,1.7-0.8l0.7,0.8c-0.3,0.4-0.6,0.7-1.1,0.9c-0.5,0.2-0.9,0.3-1.4,0.3C484.6,720.2,483.9,720,483.4,719.7z"/>
				<path class="st0" d="M489.6,713h1.2v7.2h-1.2V713z"/>
				<path class="st0" d="M494.6,719.7c-0.5-0.3-0.9-0.8-1.2-1.3c-0.3-0.5-0.4-1.2-0.4-1.9s0.2-1.3,0.4-1.9c0.3-0.5,0.7-1,1.2-1.3
					c0.5-0.3,1.1-0.5,1.7-0.5c0.6,0,1.2,0.2,1.7,0.5c0.5,0.3,0.9,0.8,1.2,1.3c0.3,0.5,0.4,1.2,0.4,1.9s-0.2,1.3-0.4,1.9
					c-0.3,0.5-0.7,1-1.2,1.3c-0.5,0.3-1.1,0.5-1.7,0.5C495.7,720.2,495.1,720,494.6,719.7z M497.5,718.7c0.3-0.2,0.6-0.5,0.8-0.9
					c0.2-0.4,0.3-0.8,0.3-1.3c0-0.5-0.1-0.9-0.3-1.3c-0.2-0.4-0.5-0.7-0.8-0.9c-0.3-0.2-0.7-0.3-1.2-0.3c-0.4,0-0.8,0.1-1.2,0.3
					c-0.3,0.2-0.6,0.5-0.8,0.9s-0.3,0.8-0.3,1.3c0,0.5,0.1,0.9,0.3,1.3c0.2,0.4,0.5,0.7,0.8,0.9c0.3,0.2,0.7,0.3,1.2,0.3
					C496.7,719,497.1,718.9,497.5,718.7z M496.8,711h1.3l-1.6,1.4h-0.9L496.8,711z"/>
				<path class="st0" d="M507.5,713v7.2h-0.9l-3.5-4.9v4.9h-1.2V713h0.9l3.5,4.9V713H507.5z"/>
			</g>
			<g>
				<path class="st0" d="M535.8,718.5h-3.2l-0.6,1.7h-1.2l2.8-7.2h1.2l2.8,7.2h-1.2L535.8,718.5L535.8,718.5z M535.4,717.4l-1.2-3.1
					l-1.2,3.1H535.4z"/>
				<path class="st0" d="M543.5,720.1l-1.3-2.1c-0.1,0-0.2,0-0.3,0h-1.4v2.1h-1.2V713h2.6c0.5,0,1,0.1,1.4,0.3
					c0.4,0.2,0.7,0.5,0.9,0.9c0.2,0.4,0.3,0.8,0.3,1.4s-0.1,1-0.4,1.4c-0.2,0.4-0.6,0.7-1,0.9l1.5,2.3H543.5L543.5,720.1z
					 M543,714.4c-0.3-0.2-0.6-0.4-1.2-0.4h-1.4v2.9h1.4c0.5,0,0.9-0.1,1.2-0.4c0.3-0.2,0.4-0.6,0.4-1.1S543.3,714.7,543,714.4
					L543,714.4z"/>
				<path class="st0" d="M552.6,720.1v-4.7l-2.1,4H550l-2.1-3.9v4.7h-1.1V713h0.9l2.5,4.7l2.5-4.7h0.9v7.2H552.6L552.6,720.1z"/>
				<path class="st0" d="M557.5,719.7c-0.5-0.3-0.9-0.8-1.2-1.3c-0.3-0.5-0.4-1.2-0.4-1.9s0.2-1.3,0.4-1.9c0.3-0.5,0.7-1,1.2-1.3
					c0.5-0.3,1.1-0.5,1.7-0.5c0.6,0,1.2,0.2,1.7,0.5c0.5,0.3,0.9,0.8,1.2,1.3c0.3,0.5,0.4,1.2,0.4,1.9s-0.2,1.3-0.4,1.9
					c-0.3,0.5-0.7,1-1.2,1.3c-0.5,0.3-1.1,0.5-1.7,0.5S558,720,557.5,719.7L557.5,719.7z M560.4,718.7c0.3-0.2,0.6-0.5,0.8-0.9
					c0.2-0.4,0.3-0.8,0.3-1.3c0-0.5-0.1-0.9-0.3-1.3c-0.2-0.4-0.5-0.7-0.8-0.9c-0.3-0.2-0.7-0.3-1.2-0.3c-0.4,0-0.8,0.1-1.2,0.3
					c-0.3,0.2-0.6,0.5-0.8,0.9s-0.3,0.8-0.3,1.3c0,0.5,0.1,0.9,0.3,1.3c0.2,0.4,0.5,0.7,0.8,0.9s0.7,0.3,1.2,0.3
					C559.7,719,560,718.9,560.4,718.7L560.4,718.7z"/>
				<path class="st0" d="M570.4,713v7.2h-0.9l-3.5-4.9v4.9h-1.2V713h0.9l3.5,4.9V713H570.4z"/>
				<path class="st0" d="M574.1,711h1.3l-1.6,1.4h-0.9L574.1,711z M573,713h1.2v7.2H573V713z"/>
				<path class="st0" d="M580.9,718.5h-3.2l-0.6,1.7h-1.2l2.8-7.2h1.2l2.8,7.2h-1.2L580.9,718.5z M580.5,717.4l-1.2-3.1l-1.2,3.1
					H580.5z"/>
			</g>
			<g>
				<path class="st0" d="M611.7,713v7.2h-1.2v-3.1h-3.3v3.1h-1.2V713h1.2v2.9h3.3V713H611.7z"/>
				<path class="st0" d="M614.2,713h1.2v7.2h-1.2V713z"/>
				<path class="st0" d="M618.6,720c-0.5-0.2-0.8-0.4-1.1-0.6l0.4-1c0.3,0.2,0.6,0.4,0.9,0.6c0.4,0.1,0.7,0.2,1.1,0.2
					c0.4,0,0.8-0.1,1.1-0.2c0.2-0.2,0.4-0.4,0.4-0.7c0-0.2-0.1-0.4-0.2-0.5c-0.1-0.1-0.3-0.2-0.5-0.3c-0.2-0.1-0.5-0.2-0.8-0.2
					c-0.5-0.1-0.9-0.2-1.2-0.4c-0.3-0.1-0.6-0.4-0.8-0.6c-0.2-0.3-0.3-0.7-0.3-1.1c0-0.5,0.1-0.8,0.3-1.1c0.2-0.3,0.5-0.6,0.8-0.8
					c0.4-0.2,0.8-0.3,1.4-0.3s0.7,0,1.2,0.2c0.4,0.1,0.7,0.2,0.9,0.5l-0.4,1c-0.3-0.2-0.6-0.3-0.8-0.4c-0.3-0.1-0.6-0.1-0.9-0.1
					c-0.5,0-0.8,0.1-1.1,0.2c-0.2,0.2-0.3,0.4-0.3,0.7c0,0.3,0.1,0.4,0.2,0.5c0.1,0.1,0.3,0.2,0.5,0.3c0.2,0.1,0.5,0.2,0.8,0.2
					c0.5,0.1,0.8,0.2,1.2,0.4c0.3,0.1,0.6,0.4,0.8,0.6c0.2,0.3,0.3,0.7,0.3,1.1c0,0.4-0.1,0.8-0.3,1.1c-0.2,0.3-0.5,0.6-0.8,0.8
					c-0.4,0.2-0.8,0.3-1.4,0.3C619.5,720.3,619.1,720.2,618.6,720L618.6,720z"/>
				<path class="st0" d="M625.8,714.1h-2.1V713h5.4v1.1h-2.1v6.1h-1.2V714.1z"/>
				<path class="st0" d="M631.9,719.7c-0.5-0.3-0.9-0.8-1.2-1.3c-0.3-0.5-0.4-1.2-0.4-1.9s0.2-1.3,0.4-1.9c0.3-0.5,0.7-1,1.2-1.3
					c0.5-0.3,1.1-0.5,1.7-0.5s1.2,0.2,1.7,0.5c0.5,0.3,0.9,0.8,1.2,1.3c0.3,0.5,0.4,1.2,0.4,1.9s-0.2,1.3-0.4,1.9
					c-0.3,0.5-0.7,1-1.2,1.3c-0.5,0.3-1.1,0.5-1.7,0.5S632.5,720,631.9,719.7z M634.8,718.7c0.3-0.2,0.6-0.5,0.8-0.9
					c0.2-0.4,0.3-0.8,0.3-1.3c0-0.5-0.1-0.9-0.3-1.3c-0.2-0.4-0.5-0.7-0.8-0.9c-0.3-0.2-0.7-0.3-1.2-0.3c-0.4,0-0.8,0.1-1.2,0.3
					c-0.3,0.2-0.6,0.5-0.8,0.9s-0.3,0.8-0.3,1.3c0,0.5,0.1,0.9,0.3,1.3c0.2,0.4,0.5,0.7,0.8,0.9s0.7,0.3,1.2,0.3
					C634.1,719,634.5,718.9,634.8,718.7z"/>
				<path class="st0" d="M643.4,720.1l-1.3-2.1c-0.1,0-0.2,0-0.3,0h-1.4v2.1h-1.2V713h2.6c0.5,0,1,0.1,1.4,0.3
					c0.4,0.2,0.7,0.5,0.9,0.9c0.2,0.4,0.3,0.8,0.3,1.4s-0.1,1-0.4,1.4c-0.2,0.4-0.6,0.7-1,0.9l1.5,2.3H643.4L643.4,720.1z
					 M643,714.4c-0.3-0.2-0.6-0.4-1.2-0.4h-1.4v2.9h1.4c0.5,0,0.9-0.1,1.2-0.4c0.3-0.2,0.4-0.6,0.4-1.1S643.2,714.7,643,714.4
					L643,714.4z"/>
				<path class="st0" d="M646.7,713h1.2v7.2h-1.2V713z"/>
				<path class="st0" d="M654.6,718.5h-3.2l-0.6,1.7h-1.2l2.8-7.2h1.2l2.8,7.2h-1.2L654.6,718.5z M654.2,717.4l-1.2-3.1l-1.2,3.1
					H654.2z"/>
			</g>
			<rect x="666.9" y="701.1" class="st0" width="0.4" height="28.2"/>
			<ellipse class="st0" cx="519.1" cy="716.7" rx="1" ry="1.1"/>
			<ellipse class="st0" cx="594.4" cy="716.7" rx="1" ry="1.1"/>
		</g>
	</g>
</g>
<g>
	<g>
		<g>
			<polygon class="st0" points="389.2,886.8 389.2,1033.7 363.7,1033.7 363.7,949.5 346.7,949.5 346.7,886.8 			"/>
			<polygon class="st0" points="344.6,886.8 344.6,949.5 337.1,949.5 337.1,1033.7 312.6,1033.7 312.6,949.5 301.6,949.5 
				301.6,886.8 			"/>
			<polygon class="st0" points="299.5,886.8 299.5,949.5 284.5,949.5 284.5,1033.7 257,1033.7 257,886.8 			"/>
		</g>
		<path class="st0" d="M407.9,1056.8H238.3v-193h169.6L407.9,1056.8L407.9,1056.8z M240.9,1053.8h164.5V866.6H240.9V1053.8z"/>
		<path class="st0" d="M401.1,1049.1H245V871.4h156.1V1049.1L401.1,1049.1z M245.7,1048.3h154.8V872.2H245.7V1048.3z"/>
	</g>
	<g>
		<g>
			<path class="st0" d="M425.7,923.2v-57.4h14l13.8,40.2c0.8,2.3,1.2,3.9,1.4,5.7h0.1c0.3-1.8,0.7-3.4,1.5-5.9l13.8-40.1h14.2v57.4
				h-8.9v-41.8c0-2.3,0.1-4.8,0.4-6.7h-0.3c-0.2,1.3-1.1,4.3-1.8,6.4l-14.7,42.2h-8.9l-14.7-42.3c-0.7-1.9-1.4-4.8-1.6-6.3H434
				c0.2,1.8,0.3,4.1,0.3,6.7v41.8L425.7,923.2L425.7,923.2z"/>
			<path class="st0" d="M496.2,865.8h9.7v34.1c0,9.2,5.1,15.8,14.2,15.8c9.1,0,14.2-6.6,14.2-15.8v-34.1h9.7v34.9
				c0,14.4-8.7,24.2-23.9,24.2c-15.2,0-23.9-9.9-23.9-24.2L496.2,865.8L496.2,865.8z"/>
			<path class="st0" d="M550.6,908.2l8.2-4.2c2.4,7.2,8,12.3,17.6,12.3s12.5-2.5,12.5-8.5c0-6-3-7.4-9.5-8.5l-10.8-1.7
				c-9.6-1.7-15.1-6.7-15.1-16.4c0-9.7,8.1-17,21.7-17s19.9,4.7,23.2,14.5l-7.6,4.6c-2.3-6.9-7.6-10.8-16.1-10.8
				c-8.5,0-11.6,2.9-11.6,7.8s2.5,7,9,8.1l10.6,1.8c10.4,1.8,16,6.4,16,16.5c0,10.1-7.7,18.1-22.6,18.1
				C561.2,924.8,553.6,918.4,550.6,908.2L550.6,908.2z"/>
			<path class="st0" d="M617.3,914.8h30.5v8.5h-40.2v-57.4h39.7v8.5h-30v15.5h28.8v8.3h-28.8L617.3,914.8L617.3,914.8z"/>
			<path class="st0" d="M653.6,894.5c0-18.5,11.1-30.3,27.9-30.3s27.9,11.8,27.9,30.3s-11,30.3-27.9,30.3S653.6,912.9,653.6,894.5
				L653.6,894.5z M699.3,894.5c0-13.2-6.9-21.6-17.8-21.6c-10.9,0-17.8,8.4-17.8,21.6c0,13.2,6.9,21.6,17.8,21.6
				C692.5,916.1,699.3,907.7,699.3,894.5z"/>
			<path class="st0" d="M741,923.2v-57.4h23.2c16.2,0,27,10.7,27,28.2c0,17.5-10.9,29.3-27.1,29.3L741,923.2L741,923.2z
				 M750.7,914.8h13c11,0,17.4-8.6,17.4-20.8c0-12.2-6.7-19.8-17.6-19.8h-12.8L750.7,914.8L750.7,914.8z"/>
			<path class="st0" d="M809.7,914.8h30.5v8.5H800v-57.4h39.7v8.5h-30v15.5h28.8v8.3h-28.8L809.7,914.8L809.7,914.8z"/>
			<path class="st0" d="M425.7,1001.1v-54.3h9.1v45.7h26.6v8.6L425.7,1001.1L425.7,1001.1z"/>
			<path class="st0" d="M508.5,1001.1l-4.8-13.2h-23.6l-4.8,13.2h-9.6l21-54.3h10.3l21,54.3H508.5L508.5,1001.1z M482.9,980.3h18
				l-7-19.3c-0.6-1.7-1.4-4.1-1.9-6.3h-0.1c-0.5,2.1-1.4,4.6-1.9,6.3L482.9,980.3z"/>
			<path class="st0" d="M546.6,1001.1v-54.3h13.3l13.1,38c0.7,2.2,1.1,3.7,1.4,5.4h0.1c0.3-1.8,0.6-3.2,1.4-5.5l13.1-37.9h13.4v54.3
				h-8.4v-39.5c0-2.2,0.1-4.5,0.3-6.4H594c-0.2,1.2-1,4-1.7,6.1l-13.8,39.8H570l-13.8-39.9c-0.6-1.8-1.3-4.5-1.5-5.9h-0.3
				c0.2,1.8,0.3,3.9,0.3,6.4v39.5L546.6,1001.1L546.6,1001.1z"/>
			<path class="st0" d="M613.2,946.8h9.2V979c0,8.7,4.8,14.9,13.4,14.9s13.4-6.2,13.4-14.9v-32.3h9.2v33c0,13.5-8.2,22.8-22.6,22.8
				s-22.6-9.3-22.6-22.9V946.8L613.2,946.8z"/>
			<path class="st0" d="M664.6,986.8l7.7-4c2.3,6.9,7.6,11.6,16.7,11.6c9.1,0,11.8-2.3,11.8-8.1c0-5.7-2.9-7-9-8.1l-10.2-1.6
				c-9.1-1.6-14.2-6.3-14.2-15.5c0-9.2,7.7-16,20.5-16s18.8,4.5,21.9,13.7l-7.2,4.4c-2.1-6.5-7.2-10.2-15.2-10.2s-11,2.7-11,7.4
				s2.4,6.6,8.6,7.6l10,1.7c9.8,1.8,15.1,6.1,15.1,15.6s-7.3,17.1-21.4,17.1S667.5,996.5,664.6,986.8L664.6,986.8z"/>
			<path class="st0" d="M727.6,1001.1h-9.1v-54.3h9.1V1001.1z"/>
			<path class="st0" d="M735.8,973.9c0-17.1,10.1-28.7,26.3-28.7s21.6,7.6,23.7,19.7l-9.5,1.6c-1.4-8.1-6.4-12.9-14.6-12.9
				s-16.4,8-16.4,20.2c0,12.2,6.2,20.3,16.6,20.3s12.8-4.5,14.7-12.3l9.2,2.1c-2.8,11.4-10.9,18.7-24.1,18.7
				S735.8,990.8,735.8,973.9L735.8,973.9z"/>
			<path class="st0" d="M830,1001.1l-4.8-13.2h-23.6l-4.8,13.2h-9.6l21-54.3h10.3l21,54.3H830L830,1001.1z M804.5,980.3h18l-7-19.3
				c-0.6-1.7-1.4-4.1-1.9-6.3h-0.1c-0.5,2.1-1.4,4.6-1.9,6.3L804.5,980.3L804.5,980.3z"/>
		</g>
		<g>
			<path class="st0" d="M425.7,1056.4v-32.5h11.7c8.8,0,14.6,5.7,14.6,16c0,10.3-6,16.5-14.6,16.5L425.7,1056.4L425.7,1056.4z
				 M428,1054.3h9.5c7.5,0,12.2-5.4,12.2-14.3c0-8.9-4.9-13.7-12.3-13.7H428V1054.3z"/>
			<path class="st0" d="M464.5,1054.3h19.1v2.2h-21.4v-32.5h21.1v2.2h-18.9v12.5h18.1v2.2h-18.1V1054.3L464.5,1054.3z"/>
			<path class="st0" d="M526.2,1024c5.7,0,9.1,3.5,9.1,9.2s-3.6,9.6-9.4,9.6h-11v13.7h-2.3V1024H526.2L526.2,1024z M526,1040.6
				c4.2,0,6.9-2.9,6.9-7.4c0-4.5-2.6-7-7-7h-11v14.4H526z"/>
			<path class="st0" d="M544.1,1024h2.3v20.1c0,6.6,3.5,11.1,10,11.1s10-4.5,10-11.1V1024h2.3v20.2c0,7.9-4.4,13.3-12.3,13.3
				s-12.3-5.3-12.3-13.3L544.1,1024L544.1,1024z"/>
			<path class="st0" d="M583.1,1054.3h19.1v2.2h-21.4v-32.5H602v2.2h-18.9v12.5h18.1v2.2h-18.1V1054.3L583.1,1054.3z"/>
			<path class="st0" d="M634.3,1056.4l-7.8-14.2h-10.7v14.2h-2.3v-32.5h13.6c6.8,0,9,4.2,9,9.1s-2,8-7,8.9l8,14.6H634.3z
				 M615.7,1026.2v13.8h11.2c4.8,0,6.8-3,6.8-7c0-4-1.9-6.8-6.8-6.8H615.7L615.7,1026.2z"/>
			<path class="st0" d="M666.6,1024v2.2h-11.3v30.3H653v-30.3h-11.3v-2.2H666.6z"/>
			<path class="st0" d="M670.8,1040.3c0-10.8,6-17.2,14.7-17.2c8.7,0,14.7,6.4,14.7,17.2s-6,17.2-14.7,17.2
				C676.9,1057.5,670.8,1051.1,670.8,1040.3z M698,1040.3c0-9.4-5.1-14.9-12.4-14.9s-12.4,5.6-12.4,14.9s5.1,14.9,12.4,14.9
				S698,1049.6,698,1040.3z"/>
			<path class="st0" d="M749.2,1056.4l-7.8-14.2h-10.7v14.2h-2.3v-32.5H742c6.8,0,9,4.2,9,9.1s-2,8-7,8.9l8,14.6H749.2z
				 M730.7,1026.2v13.8h11.2c4.8,0,6.8-3,6.8-7c0-4-1.9-6.8-6.8-6.8H730.7L730.7,1026.2z"/>
			<path class="st0" d="M764.6,1056.4h-2.3v-32.5h2.3V1056.4z"/>
			<path class="st0" d="M774.8,1040.2c0-10.5,5.6-17.1,14.6-17.1c9,0,12.1,4.3,13.1,11.8l-2.4,0.2c-0.9-6.3-4.8-9.8-10.9-9.8
				s-12.1,5.6-12.1,14.9s4.6,14.9,12.2,14.9c7.6,0,9.6-3.2,10.9-9.3l2.3,0.4c-1.5,7-5.9,11.3-13.3,11.3S774.8,1050.6,774.8,1040.2z"
				/>
			<path class="st0" d="M810.6,1040.3c0-10.8,6-17.2,14.7-17.2c8.7,0,14.7,6.4,14.7,17.2s-6,17.2-14.7,17.2
				C816.7,1057.5,810.6,1051.1,810.6,1040.3z M837.8,1040.3c0-9.4-5.1-14.9-12.4-14.9c-7.3,0-12.4,5.6-12.4,14.9s5.1,14.9,12.4,14.9
				C832.7,1055.2,837.8,1049.6,837.8,1040.3z"/>
		</g>
		<polyline class="st0" points="628.7,944.6 644.6,933.6 646.9,939.1 629.6,946.9 		"/>
	</g>
</g>
<g>
	<g>
		<g>
			<polygon class="st0" points="311.9,1161.6 311.9,1233.2 299.4,1233.2 299.4,1192.1 291.1,1192.1 291.1,1161.6 			"/>
			<polygon class="st0" points="290.1,1161.6 290.1,1192.1 286.4,1192.1 286.4,1233.2 274.5,1233.2 274.5,1192.1 269.2,1192.1 
				269.2,1161.6 			"/>
			<polygon class="st0" points="268.1,1161.6 268.1,1192.1 260.8,1192.1 260.8,1233.2 247.4,1233.2 247.4,1161.6 			"/>
		</g>
		<path class="st0" d="M321,1244.4h-82.7v-94.1H321V1244.4L321,1244.4z M239.5,1243h80.2v-91.2h-80.2V1243z"/>
		<path class="st0" d="M317.7,1240.7h-76.1v-86.6h76.1V1240.7L317.7,1240.7z M241.9,1240.3h75.4v-85.9h-75.4V1240.3z"/>
	</g>
	<g>
		<path class="st0" d="M342.2,1201.4v-52h12.7l12.5,36.4c0.7,2.1,1,3.5,1.3,5.2h0.1c0.2-1.7,0.6-3.1,1.3-5.3l12.5-36.4h12.9v52h-8
			v-37.9c0-2.1,0.1-4.3,0.3-6.1h-0.2c-0.2,1.2-1,3.9-1.6,5.8l-13.3,38.2h-8l-13.3-38.3c-0.6-1.7-1.2-4.3-1.5-5.7h-0.2
			c0.2,1.7,0.2,3.7,0.2,6.1v37.9L342.2,1201.4L342.2,1201.4z"/>
		<path class="st0" d="M406,1149.3h8.8v30.9c0,8.4,4.7,14.3,12.9,14.3c8.2,0,12.9-6,12.9-14.3v-30.9h8.8v31.6
			c0,13-7.9,21.9-21.7,21.9c-13.8,0-21.7-9-21.7-22V1149.3L406,1149.3z"/>
		<path class="st0" d="M455.3,1187.7l7.4-3.8c2.2,6.6,7.3,11.1,16,11.1c8.7,0,11.3-2.3,11.3-7.7s-2.7-6.7-8.6-7.7l-9.8-1.5
			c-8.7-1.5-13.6-6-13.6-14.9c0-8.8,7.3-15.4,19.6-15.4s18,4.2,21,13.1l-6.9,4.2c-2-6.2-6.9-9.8-14.6-9.8c-7.7,0-10.6,2.6-10.6,7.1
			s2.3,6.3,8.2,7.3l9.6,1.6c9.4,1.7,14.5,5.8,14.5,14.9s-7,16.4-20.5,16.4C464.9,1202.8,458,1197,455.3,1187.7L455.3,1187.7z"/>
		<path class="st0" d="M515.7,1193.7h27.6v7.7H507v-52h36v7.7h-27.2v14h26.1v7.5h-26.1L515.7,1193.7L515.7,1193.7z"/>
		<path class="st0" d="M548.6,1175.4c0-16.8,10-27.5,25.3-27.5s25.2,10.7,25.2,27.5c0,16.8-10,27.5-25.2,27.5
			S548.6,1192,548.6,1175.4L548.6,1175.4z M590.1,1175.4c0-11.9-6.2-19.6-16.1-19.6c-9.9,0-16.1,7.6-16.1,19.6
			c0,11.9,6.2,19.6,16.1,19.6C583.9,1195,590.1,1187.3,590.1,1175.4z"/>
		<path class="st0" d="M627.9,1201.4v-52h21c14.7,0,24.5,9.7,24.5,25.5c0,15.9-9.9,26.5-24.5,26.5L627.9,1201.4L627.9,1201.4z
			 M636.7,1193.8h11.8c10,0,15.8-7.8,15.8-18.8s-6.1-18-16-18h-11.6V1193.8L636.7,1193.8z"/>
		<path class="st0" d="M690.1,1193.7h27.6v7.7h-36.4v-52h36v7.7h-27.2v14h26.1v7.5h-26.1L690.1,1193.7L690.1,1193.7z"/>
		<path class="st0" d="M754,1201.3v-51.1h8.6v43h25.1v8.1H754L754,1201.3z"/>
		<path class="st0" d="M831.9,1201.3l-4.5-12.4h-22.2l-4.5,12.4h-9l19.8-51.1h9.7l19.8,51.1H831.9L831.9,1201.3z M807.9,1181.7h16.9
			l-6.6-18.1c-0.5-1.6-1.3-3.9-1.8-5.9h-0.1c-0.5,2-1.3,4.3-1.8,5.9L807.9,1181.7z"/>
		<path class="st0" d="M867.8,1201.3v-51.1h12.5l12.4,35.8c0.7,2.1,1,3.4,1.3,5.1h0.1c0.2-1.7,0.6-3,1.3-5.2l12.3-35.7h12.7v51.1
			h-7.9v-37.2c0-2.1,0.1-4.3,0.3-6h-0.2c-0.2,1.2-1,3.8-1.6,5.7l-13,37.5h-7.9l-13-37.6c-0.6-1.7-1.2-4.3-1.5-5.6h-0.2
			c0.2,1.7,0.2,3.7,0.2,6v37.2L867.8,1201.3L867.8,1201.3z"/>
		<path class="st0" d="M930.5,1150.1h8.7v30.4c0,8.2,4.5,14.1,12.7,14.1c8.1,0,12.7-5.9,12.7-14.1v-30.4h8.7v31
			c0,12.8-7.7,21.5-21.3,21.5s-21.3-8.8-21.3-21.6L930.5,1150.1L930.5,1150.1z"/>
		<path class="st0" d="M978.9,1187.9l7.3-3.7c2.1,6.5,7.2,11,15.7,11c8.5,0,11.2-2.2,11.2-7.6s-2.7-6.6-8.5-7.6l-9.6-1.5
			c-8.5-1.5-13.4-5.9-13.4-14.6c0-8.7,7.2-15.1,19.3-15.1s17.7,4.2,20.7,12.9l-6.8,4.1c-2-6.1-6.8-9.6-14.3-9.6s-10.4,2.6-10.4,7
			s2.2,6.2,8.1,7.2l9.4,1.6c9.3,1.7,14.2,5.7,14.2,14.7s-6.9,16.1-20.1,16.1S981.7,1197,978.9,1187.9L978.9,1187.9z"/>
		<path class="st0" d="M1038.3,1201.3h-8.6v-51.1h8.6V1201.3z"/>
		<path class="st0" d="M1046,1175.7c0-16.1,9.5-27,24.7-27c15.2,0,20.4,7.2,22.4,18.6l-8.9,1.5c-1.3-7.7-6.1-12.1-13.8-12.1
			c-7.7,0-15.5,7.5-15.5,19s5.8,19.1,15.6,19.1s12.1-4.3,13.8-11.6l8.7,1.9c-2.7,10.8-10.3,17.7-22.7,17.7
			C1058.1,1202.8,1046,1191.6,1046,1175.7L1046,1175.7z"/>
		<path class="st0" d="M1134.8,1201.3l-4.5-12.4H1108l-4.5,12.4h-9l19.8-51.1h9.7l19.8,51.1H1134.8L1134.8,1201.3z M1110.7,1181.7
			h16.9l-6.6-18.1c-0.5-1.6-1.3-3.9-1.8-5.9h-0.1c-0.5,2-1.3,4.3-1.8,5.9L1110.7,1181.7L1110.7,1181.7z"/>
	</g>
	<g>
		<path class="st0" d="M340.4,1243.8v-29.5H351c7.9,0,13.2,5.2,13.2,14.5s-5.5,15-13.2,15H340.4L340.4,1243.8z M342.5,1241.8h8.6
			c6.8,0,11-4.9,11-12.9c0-8-4.4-12.4-11.1-12.4h-8.5V1241.8z"/>
		<path class="st0" d="M375.5,1241.8h17.3v2h-19.4v-29.5h19.1v2h-17.1v11.3h16.4v2h-16.4V1241.8L375.5,1241.8z"/>
		<path class="st0" d="M431.4,1214.4c5.1,0,8.3,3.2,8.3,8.4c0,5.2-3.3,8.7-8.5,8.7h-10v12.4h-2.1v-29.5H431.4L431.4,1214.4z
			 M431.2,1229.4c3.8,0,6.2-2.6,6.2-6.7s-2.4-6.3-6.4-6.3h-10v13H431.2z"/>
		<path class="st0" d="M447.6,1214.4h2.1v18.2c0,6,3.2,10,9,10s9.1-4,9.1-10v-18.2h2.1v18.3c0,7.2-4,12-11.1,12s-11.1-4.8-11.1-12
			L447.6,1214.4L447.6,1214.4z"/>
		<path class="st0" d="M482.9,1241.8h17.3v2h-19.4v-29.5H500v2h-17.1v11.3h16.4v2h-16.4V1241.8L482.9,1241.8z"/>
		<path class="st0" d="M529.3,1243.8l-7.1-12.9h-9.7v12.9h-2.1v-29.5h12.4c6.1,0,8.2,3.8,8.2,8.2c0,4.4-1.8,7.2-6.4,8l7.2,13.2
			H529.3z M512.5,1216.4v12.5h10.1c4.3,0,6.1-2.7,6.1-6.3s-1.7-6.2-6.2-6.2H512.5L512.5,1216.4z"/>
		<path class="st0" d="M558.6,1214.4v2h-10.2v27.5h-2.1v-27.5h-10.2v-2H558.6z"/>
		<path class="st0" d="M562.4,1229.1c0-9.8,5.5-15.6,13.3-15.6s13.3,5.8,13.3,15.6c0,9.8-5.5,15.6-13.3,15.6
			S562.4,1239,562.4,1229.1z M587,1229.1c0-8.5-4.6-13.5-11.2-13.5c-6.6,0-11.2,5-11.2,13.5c0,8.5,4.6,13.5,11.2,13.5
			C582.4,1242.7,587,1237.6,587,1229.1z"/>
		<path class="st0" d="M633.4,1243.8l-7.1-12.9h-9.7v12.9h-2.1v-29.5h12.4c6.1,0,8.2,3.8,8.2,8.2c0,4.4-1.8,7.2-6.4,8l7.2,13.2
			H633.4z M616.6,1216.4v12.5h10.1c4.3,0,6.1-2.7,6.1-6.3s-1.7-6.2-6.2-6.2H616.6L616.6,1216.4z"/>
		<path class="st0" d="M647.3,1243.8h-2v-29.5h2V1243.8z"/>
		<path class="st0" d="M656.6,1229.1c0-9.6,5.1-15.5,13.2-15.5c8.2,0,11,3.9,11.9,10.7l-2.2,0.2c-0.8-5.7-4.4-8.9-9.9-8.9
			s-11,5-11,13.5s4.1,13.5,11,13.5c6.9,0,8.7-2.9,9.9-8.4l2.1,0.3c-1.3,6.4-5.4,10.2-12.1,10.2
			C663,1244.7,656.6,1238.5,656.6,1229.1z"/>
		<path class="st0" d="M689.1,1229.1c0-9.8,5.5-15.6,13.3-15.6c7.9,0,13.3,5.8,13.3,15.6c0,9.8-5.5,15.6-13.3,15.6
			C694.6,1244.7,689.1,1239,689.1,1229.1z M713.7,1229.1c0-8.5-4.6-13.5-11.2-13.5c-6.6,0-11.2,5-11.2,13.5
			c0,8.5,4.6,13.5,11.2,13.5C709.1,1242.7,713.7,1237.6,713.7,1229.1z"/>
	</g>
	<polyline class="st0" points="945.2,1148.1 960.1,1137.7 962.3,1143 946,1150.3 	"/>
</g>
</svg>
